<?xml version="1.0" encoding="utf-8"?>
<!-- Generator: Adobe Illustrator 27.7.0, SVG Export Plug-In . SVG Version: 6.00 Build 0)  -->
<svg version="1.1" id="Layer_1" xmlns="http://www.w3.org/2000/svg" xmlns:xlink="http://www.w3.org/1999/xlink" x="0px" y="0px"
	 viewBox="0 0 251.8 36.2" style="enable-background:new 0 0 251.8 36.2;" xml:space="preserve">
<style type="text/css">
	.st0{fill:#F6AB00;}
	.st1{fill:#EF7E00;}
	.st2{fill:#82A9DA;}
	.st3{fill:#C85912;}
	.st4{fill:#FFFFFF;}
</style>
<polygon class="st0" points="28.8,32.1 33.3,35.8 33.3,19.8 28.8,19.8 "/>
<path class="st0" d="M4.9,18.6v8.7l6.7,0.7v-9.4c0-1.1,0.1-2.1,0.4-3.1l-6.4-1.9C5.1,15.2,4.9,16.9,4.9,18.6"/>
<path class="st0" d="M23.5,6.7c2.7,0,5.2,0.9,7.3,2.5L34.9,4c-3.2-2.5-7.1-3.9-11.4-3.9c-1.7,0-3.4,0.2-5,0.7l1.9,6.4
	C21.3,6.9,22.4,6.7,23.5,6.7"/>
<path class="st1" d="M25.2,13.6c0.5,0.2,1,0.4,1.4,0.7l2.8-3.5c-0.9-0.7-1.8-1.2-2.9-1.5L25.2,13.6L25.2,13.6z"/>
<polygon class="st1" points="13.6,35.8 18.1,32.1 18.1,22.2 13.6,22.2 "/>
<path class="st1" d="M6.1,12l6.2,2.3c0.3-0.9,0.8-1.7,1.3-2.4L8.3,8C7.4,9.2,6.7,10.5,6.1,12"/>
<path class="st1" d="M42,27.4v-8.7c0-1.7-0.2-3.4-0.7-5L35,15.5c0.3,1,0.4,2.1,0.4,3.1V28L42,27.4L42,27.4z"/>
<path class="st2" d="M23.5,13.3c0.3,0,0.6,0,0.9,0.1l1-4.4c-0.6-0.1-1.3-0.2-2-0.2c-3,0-5.6,1.3-7.4,3.3l3.5,2.9
	C20.5,14,21.9,13.3,23.5,13.3"/>
<path class="st2" d="M36.2,5.2l-4.5,4.9c1.2,1.2,2.2,2.6,2.8,4.2l6.2-2.3C39.8,9.4,38.2,7,36.2,5.2"/>
<polygon class="st2" points="1.4,31.6 11.5,31.6 11.5,29.2 1.4,28.8 "/>
<polygon class="st2" points="35.4,31.6 45.5,31.6 45.5,28.8 35.4,29.2 "/>
<path class="st3" d="M28.8,18.6L28.8,18.6V19l4.5-0.3v0c0-2.8-1.2-5.3-3-7.1l-3.1,3.3C28.2,15.9,28.8,17.2,28.8,18.6"/>
<path class="st3" d="M18.1,18.6c0-1.1,0.3-2.1,0.9-2.9l-3.7-2.7c-1.1,1.6-1.7,3.5-1.7,5.6v2.4l4.5,0.3L18.1,18.6L18.1,18.6z"/>
<path class="st3" d="M19.1,7.6l-2.3-6.2c-2.9,1.1-5.4,2.9-7.4,5.3l5.1,4.3C15.7,9.4,17.3,8.3,19.1,7.6"/>
<rect y="32.8" class="st3" width="11.5" height="3.4"/>
<rect x="35.4" y="32.8" class="st3" width="11.5" height="3.4"/>
<g>
	<polygon class="st4" points="242.1,15.3 231.9,15.3 231.9,6.1 242,6.1 242,2.7 228.4,2.7 228.4,18.8 242.1,18.8 	"/>
	<polygon class="st4" points="221.4,10.8 219.4,10.8 219.4,2.7 215.8,2.7 215.8,23.5 219.4,23.5 219.4,14.3 221.4,14.3 221.4,23.5 
		224.9,23.5 224.9,2.7 221.4,2.7 	"/>
	<polygon class="st4" points="248.6,10.9 248.6,2.7 245.1,2.7 245.1,23.6 248.6,23.6 248.6,14.4 251.8,14.4 251.8,10.9 	"/>
	<polygon class="st4" points="237.6,27.3 237.6,21.7 234.1,21.7 234.1,30.8 248.7,30.8 248.6,27.3 	"/>
	<polygon class="st4" points="213.8,6.1 213.8,2.7 199.8,2.7 199.8,6.1 205.1,6.1 198.9,18.8 202.8,18.8 206.8,10.7 210.7,18.8 
		214.7,18.8 208.4,6.1 	"/>
	<path class="st4" d="M67.5,21.2c-2.1,0-3.9,0.8-5.3,2.2c-1.3,1.4-2.2,3.2-2.2,5.3s0.9,4,2.3,5.3c1.3,1.3,3.2,2.1,5.2,2.1
		s3.9-0.8,5.3-2.2c1.4-1.3,2.2-3.2,2.2-5.3s-0.8-3.9-2.1-5.2C71.5,22.1,69.6,21.2,67.5,21.2 M70.3,31.5c-0.7,0.7-1.7,1.2-2.8,1.2
		s-2.1-0.4-2.8-1.1c-0.8-0.7-1.2-1.8-1.2-2.9s0.5-2.1,1.2-2.9c0.7-0.8,1.8-1.2,2.9-1.2s2.2,0.5,2.9,1.3c0.7,0.7,1.1,1.7,1.1,2.8
		S71,30.8,70.3,31.5"/>
	<path class="st4" d="M119.5,2.7H105V15l14.5,0V2.7z M116,11.9h-7.6V6h7.6V11.9z"/>
	<polygon class="st4" points="108.4,27.3 108.4,21.7 105,21.7 105,30.8 119.5,30.8 119.5,27.3 	"/>
	<polygon class="st4" points="67.5,12.6 64,12.6 64,16.8 58,16.8 58.1,20.1 77,20.1 77,16.8 67.5,16.8 	"/>
	<polygon class="st4" points="102.7,16.7 102.7,20.1 110.7,20.1 110.7,23.5 114.2,23.5 114.2,20.1 121.8,20.1 121.8,16.7 	"/>
	<polygon class="st4" points="71,6.2 71,15.1 74.5,15.1 74.5,2.7 60.5,2.7 60.5,6.2 	"/>
	<g>
		<polygon class="st4" points="169,10.9 169,2.7 165.5,2.7 165.5,23.6 169,23.6 169,14.4 172.3,14.4 172.3,10.9 		"/>
		<polygon class="st4" points="158,27.3 158,21.7 154.6,21.7 154.6,30.8 169.1,30.8 169.1,27.3 		"/>
		<polygon class="st4" points="157.1,12.6 153.6,12.6 153.6,16.8 149.4,16.8 149.5,20.1 165.9,20.1 165.9,16.8 157.1,16.8 		"/>
		<polygon class="st4" points="159.9,6.2 159.9,15.1 163.4,15.1 163.4,2.7 150.1,2.7 150.1,6.2 		"/>
	</g>
	<g>
		<path class="st4" d="M186.7,17.1c-2.1,0-3.9,0.8-5.3,2.2c-1.3,1.4-2.2,3.2-2.2,5.3s0.9,4,2.3,5.3c1.3,1.3,3.2,2.1,5.2,2.1
			s3.9-0.8,5.3-2.2c1.4-1.4,2.2-3.2,2.2-5.3s-0.8-3.9-2.1-5.2C190.7,18,188.8,17.1,186.7,17.1 M189.6,27.5c-0.7,0.7-1.7,1.2-2.8,1.2
			s-2.1-0.4-2.8-1.1c-0.8-0.7-1.2-1.8-1.2-2.9s0.4-2.1,1.2-2.9c0.7-0.8,1.8-1.2,2.9-1.2s2.1,0.5,2.9,1.3c0.7,0.7,1.1,1.7,1.1,2.8
			S190.3,26.8,189.6,27.5"/>
		<polygon class="st4" points="194.4,10.9 194.4,2.7 190.8,2.7 190.8,20.1 194.3,20.1 194.4,14.4 197.6,14.4 197.6,10.9 		"/>
		<polygon class="st4" points="182.5,12.6 179,12.6 179,16.8 174.7,16.8 174.8,20.1 191.2,20.1 191.2,16.8 182.5,16.8 		"/>
		<polygon class="st4" points="185.3,6.2 185.3,15.1 188.7,15.1 188.7,2.7 175.4,2.7 175.5,6.2 		"/>
	</g>
	<polygon class="st4" points="144.3,2.7 140.8,2.7 140.8,23.5 144.3,23.5 144.3,14.3 147.6,14.3 147.6,10.8 144.3,10.8 	"/>
	<polygon class="st4" points="79.5,20.1 88.1,20.1 88.1,26.6 91.6,26.6 91.6,20.1 100.3,20.1 100.4,16.7 79.5,16.7 	"/>
	<polygon class="st4" points="86.2,15.1 89.9,9 93.6,15.1 97.6,15.1 92.1,6.2 97.6,6.2 97.6,2.7 89.9,2.7 89.9,2.7 89.9,2.7 
		82.3,2.7 82.3,6.2 87.8,6.2 82.3,15.1 	"/>
	<path class="st4" d="M136.9,16.7c1.4-1.4,2.2-3.2,2.2-5.3s-0.8-3.9-2.1-5.2c0,0,0,0-0.1,0h1.9l-0.1-3.5h-5.4V0h-3.5v2.7h-5.4v3.5
		h1.9c-1.3,1.3-2.2,3.2-2.2,5.2s0.9,4,2.3,5.3c0.9,0.9,2.1,1.6,3.5,1.9h0v1.4h-5.5l0,3.4h14.3l0-3.4h-5.3v-1.4
		C134.8,18.3,136,17.6,136.9,16.7 M131.7,15.5c-1.1,0-2.1-0.4-2.8-1.1c-0.8-0.7-1.2-1.8-1.2-2.9s0.5-2.1,1.2-2.9
		c0.7-0.8,1.8-1.2,2.9-1.2s2.1,0.5,2.9,1.3c0.7,0.7,1.1,1.7,1.1,2.8s-0.4,2.1-1.1,2.8C133.8,15,132.8,15.5,131.7,15.5"/>
</g>
</svg>
